<mxfile host="app.diagrams.net" modified="2024-04-24T09:07:46.674Z" agent="Mozilla/5.0 (Windows NT 10.0; Win64; x64; rv:125.0) Gecko/20100101 Firefox/125.0" etag="oIsD6cocqdz9jOoDXg3h" version="24.2.2" type="github">
  <diagram id="C5RBs43oDa-KdzZeNtuy" name="Page-1">
    <mxGraphModel dx="1088" dy="607" grid="1" gridSize="10" guides="1" tooltips="1" connect="1" arrows="1" fold="1" page="1" pageScale="1" pageWidth="827" pageHeight="1169" math="0" shadow="0">
      <root>
        <mxCell id="WIyWlLk6GJQsqaUBKTNV-0" />
        <mxCell id="WIyWlLk6GJQsqaUBKTNV-1" parent="WIyWlLk6GJQsqaUBKTNV-0" />
        <mxCell id="zkfFHV4jXpPFQw0GAbJ--0" value="Usuario" style="swimlane;fontStyle=3;align=center;verticalAlign=top;childLayout=stackLayout;horizontal=1;startSize=26;horizontalStack=0;resizeParent=1;resizeLast=0;collapsible=1;marginBottom=0;rounded=0;shadow=0;strokeWidth=1;" parent="WIyWlLk6GJQsqaUBKTNV-1" vertex="1">
          <mxGeometry x="160" y="40" width="190" height="138" as="geometry">
            <mxRectangle x="230" y="140" width="160" height="26" as="alternateBounds" />
          </mxGeometry>
        </mxCell>
        <mxCell id="zkfFHV4jXpPFQw0GAbJ--4" value="" style="line;html=1;strokeWidth=1;align=left;verticalAlign=middle;spacingTop=-1;spacingLeft=3;spacingRight=3;rotatable=0;labelPosition=right;points=[];portConstraint=eastwest;" parent="zkfFHV4jXpPFQw0GAbJ--0" vertex="1">
          <mxGeometry y="26" width="190" height="8" as="geometry" />
        </mxCell>
        <mxCell id="KVD2aukKkULZzSk7sBRK-19" value="&lt;div&gt;- Name: string&lt;/div&gt;&lt;div&gt;-listaProductos: List&amp;lt;Producto&amp;gt;&lt;br&gt; &lt;/div&gt;" style="text;html=1;align=left;verticalAlign=middle;resizable=0;points=[];autosize=1;strokeColor=none;fillColor=none;" parent="zkfFHV4jXpPFQw0GAbJ--0" vertex="1">
          <mxGeometry y="34" width="190" height="40" as="geometry" />
        </mxCell>
        <mxCell id="0lGyNNXRtVz3WS-daWf8-3" value="&lt;div&gt;+abstract ComprarProductos(): void&lt;/div&gt;&lt;div&gt;+abstract MostrarInformacion(): void&lt;br&gt;&lt;/div&gt;" style="rounded=0;whiteSpace=wrap;html=1;" vertex="1" parent="zkfFHV4jXpPFQw0GAbJ--0">
          <mxGeometry y="74" width="190" height="60" as="geometry" />
        </mxCell>
        <mxCell id="zkfFHV4jXpPFQw0GAbJ--6" value="Cliente" style="swimlane;fontStyle=1;align=center;verticalAlign=top;childLayout=stackLayout;horizontal=1;startSize=26;horizontalStack=0;resizeParent=1;resizeLast=0;collapsible=1;marginBottom=0;rounded=0;shadow=0;strokeWidth=1;" parent="WIyWlLk6GJQsqaUBKTNV-1" vertex="1">
          <mxGeometry x="10" y="280" width="250" height="86" as="geometry">
            <mxRectangle x="130" y="380" width="160" height="26" as="alternateBounds" />
          </mxGeometry>
        </mxCell>
        <mxCell id="zkfFHV4jXpPFQw0GAbJ--7" value="+ComprarProductos(): override void" style="text;align=left;verticalAlign=top;spacingLeft=4;spacingRight=4;overflow=hidden;rotatable=0;points=[[0,0.5],[1,0.5]];portConstraint=eastwest;" parent="zkfFHV4jXpPFQw0GAbJ--6" vertex="1">
          <mxGeometry y="26" width="250" height="26" as="geometry" />
        </mxCell>
        <mxCell id="zkfFHV4jXpPFQw0GAbJ--8" value="+MostrarInformacionProducto(): override void" style="text;align=left;verticalAlign=top;spacingLeft=4;spacingRight=4;overflow=hidden;rotatable=0;points=[[0,0.5],[1,0.5]];portConstraint=eastwest;rounded=0;shadow=0;html=0;" parent="zkfFHV4jXpPFQw0GAbJ--6" vertex="1">
          <mxGeometry y="52" width="250" height="26" as="geometry" />
        </mxCell>
        <mxCell id="zkfFHV4jXpPFQw0GAbJ--9" value="" style="line;html=1;strokeWidth=1;align=left;verticalAlign=middle;spacingTop=-1;spacingLeft=3;spacingRight=3;rotatable=0;labelPosition=right;points=[];portConstraint=eastwest;" parent="zkfFHV4jXpPFQw0GAbJ--6" vertex="1">
          <mxGeometry y="78" width="250" height="8" as="geometry" />
        </mxCell>
        <mxCell id="zkfFHV4jXpPFQw0GAbJ--12" value="" style="endArrow=block;endSize=10;endFill=0;shadow=0;strokeWidth=1;rounded=0;curved=0;edgeStyle=elbowEdgeStyle;elbow=vertical;" parent="WIyWlLk6GJQsqaUBKTNV-1" source="zkfFHV4jXpPFQw0GAbJ--6" target="zkfFHV4jXpPFQw0GAbJ--0" edge="1">
          <mxGeometry width="160" relative="1" as="geometry">
            <mxPoint x="140" y="123" as="sourcePoint" />
            <mxPoint x="140" y="123" as="targetPoint" />
          </mxGeometry>
        </mxCell>
        <mxCell id="zkfFHV4jXpPFQw0GAbJ--13" value="Admin" style="swimlane;fontStyle=1;align=center;verticalAlign=top;childLayout=stackLayout;horizontal=1;startSize=26;horizontalStack=0;resizeParent=1;resizeLast=0;collapsible=1;marginBottom=0;rounded=0;shadow=0;strokeWidth=1;" parent="WIyWlLk6GJQsqaUBKTNV-1" vertex="1">
          <mxGeometry x="274" y="280" width="210" height="220" as="geometry">
            <mxRectangle x="340" y="380" width="170" height="26" as="alternateBounds" />
          </mxGeometry>
        </mxCell>
        <mxCell id="zkfFHV4jXpPFQw0GAbJ--15" value="" style="line;html=1;strokeWidth=1;align=left;verticalAlign=middle;spacingTop=-1;spacingLeft=3;spacingRight=3;rotatable=0;labelPosition=right;points=[];portConstraint=eastwest;" parent="zkfFHV4jXpPFQw0GAbJ--13" vertex="1">
          <mxGeometry y="26" width="210" height="8" as="geometry" />
        </mxCell>
        <mxCell id="zkfFHV4jXpPFQw0GAbJ--14" value="- Pin: string" style="text;align=left;verticalAlign=top;spacingLeft=4;spacingRight=4;overflow=hidden;rotatable=0;points=[[0,0.5],[1,0.5]];portConstraint=eastwest;" parent="zkfFHV4jXpPFQw0GAbJ--13" vertex="1">
          <mxGeometry y="34" width="210" height="56" as="geometry" />
        </mxCell>
        <mxCell id="zkfFHV4jXpPFQw0GAbJ--16" value="" style="endArrow=block;endSize=10;endFill=0;shadow=0;strokeWidth=1;rounded=0;curved=0;edgeStyle=elbowEdgeStyle;elbow=vertical;" parent="WIyWlLk6GJQsqaUBKTNV-1" source="zkfFHV4jXpPFQw0GAbJ--13" target="zkfFHV4jXpPFQw0GAbJ--0" edge="1">
          <mxGeometry width="160" relative="1" as="geometry">
            <mxPoint x="150" y="293" as="sourcePoint" />
            <mxPoint x="250" y="191" as="targetPoint" />
          </mxGeometry>
        </mxCell>
        <mxCell id="zkfFHV4jXpPFQw0GAbJ--17" value="Productos" style="swimlane;fontStyle=1;align=center;verticalAlign=top;childLayout=stackLayout;horizontal=1;startSize=26;horizontalStack=0;resizeParent=1;resizeLast=0;collapsible=1;marginBottom=0;rounded=0;shadow=0;strokeWidth=1;" parent="WIyWlLk6GJQsqaUBKTNV-1" vertex="1">
          <mxGeometry x="700" y="20" width="260" height="230" as="geometry">
            <mxRectangle x="550" y="140" width="160" height="26" as="alternateBounds" />
          </mxGeometry>
        </mxCell>
        <mxCell id="zkfFHV4jXpPFQw0GAbJ--18" value="+ ID: int&#xa;+ Nombre: string&#xa;+Unidades: int&#xa;+PrecioUnidad: double&#xa;+Descripcion: string&#xa;" style="text;align=left;verticalAlign=top;spacingLeft=4;spacingRight=4;overflow=hidden;rotatable=0;points=[[0,0.5],[1,0.5]];portConstraint=eastwest;" parent="zkfFHV4jXpPFQw0GAbJ--17" vertex="1">
          <mxGeometry y="26" width="260" height="84" as="geometry" />
        </mxCell>
        <mxCell id="0lGyNNXRtVz3WS-daWf8-10" value="&lt;div align=&quot;left&quot;&gt;+ abstract MostrarInformacion(): string&lt;br&gt;+ asbtract SolicitarDetalles(): void&lt;br&gt;+ abstract ToFile(); void&lt;br&gt;+ virtual AÃ±adirExistencias(int cantidad): void&lt;/div&gt;&lt;div&gt;&lt;br&gt;&lt;/div&gt;&lt;div&gt;&lt;br&gt;&lt;br&gt;&lt;/div&gt;" style="rounded=0;whiteSpace=wrap;html=1;" vertex="1" parent="zkfFHV4jXpPFQw0GAbJ--17">
          <mxGeometry y="110" width="260" height="120" as="geometry" />
        </mxCell>
        <mxCell id="KVD2aukKkULZzSk7sBRK-7" style="edgeStyle=orthogonalEdgeStyle;rounded=0;orthogonalLoop=1;jettySize=auto;html=1;exitX=0.5;exitY=0;exitDx=0;exitDy=0;entryX=0;entryY=1;entryDx=0;entryDy=0;" parent="WIyWlLk6GJQsqaUBKTNV-1" source="KVD2aukKkULZzSk7sBRK-6" target="zkfFHV4jXpPFQw0GAbJ--17" edge="1">
          <mxGeometry relative="1" as="geometry" />
        </mxCell>
        <mxCell id="KVD2aukKkULZzSk7sBRK-6" value="&lt;p style=&quot;line-height: 110%;&quot;&gt;&lt;/p&gt;&lt;div style=&quot;line-height: 120%;&quot;&gt;&lt;h3 style=&quot;text-align: center; line-height: 120%;&quot;&gt;Mat. Preciosos&lt;/h3&gt;&lt;/div&gt;&lt;p&gt;&lt;/p&gt;" style="rounded=0;whiteSpace=wrap;html=1;align=left;" parent="WIyWlLk6GJQsqaUBKTNV-1" vertex="1">
          <mxGeometry x="600" y="350" width="150" height="50" as="geometry" />
        </mxCell>
        <mxCell id="KVD2aukKkULZzSk7sBRK-8" value="&lt;div&gt;+ TipoMaterial: string&lt;/div&gt;&lt;div&gt;+ Peso: double&lt;br&gt;&lt;/div&gt;" style="rounded=0;whiteSpace=wrap;html=1;align=left;" parent="WIyWlLk6GJQsqaUBKTNV-1" vertex="1">
          <mxGeometry x="600" y="399" width="150" height="51" as="geometry" />
        </mxCell>
        <mxCell id="KVD2aukKkULZzSk7sBRK-15" style="edgeStyle=orthogonalEdgeStyle;rounded=0;orthogonalLoop=1;jettySize=auto;html=1;exitX=0.5;exitY=0;exitDx=0;exitDy=0;entryX=0.5;entryY=1;entryDx=0;entryDy=0;" parent="WIyWlLk6GJQsqaUBKTNV-1" source="KVD2aukKkULZzSk7sBRK-10" target="zkfFHV4jXpPFQw0GAbJ--17" edge="1">
          <mxGeometry relative="1" as="geometry" />
        </mxCell>
        <mxCell id="KVD2aukKkULZzSk7sBRK-10" value="&lt;h3&gt;Prod. Alimenticios&lt;/h3&gt;" style="rounded=0;whiteSpace=wrap;html=1;" parent="WIyWlLk6GJQsqaUBKTNV-1" vertex="1">
          <mxGeometry x="780" y="380" width="170" height="50" as="geometry" />
        </mxCell>
        <mxCell id="KVD2aukKkULZzSk7sBRK-12" value="&lt;div&gt;+ InformacionNutricional: string&lt;/div&gt;" style="rounded=0;whiteSpace=wrap;html=1;align=left;" parent="WIyWlLk6GJQsqaUBKTNV-1" vertex="1">
          <mxGeometry x="780" y="429" width="190" height="61" as="geometry" />
        </mxCell>
        <mxCell id="KVD2aukKkULZzSk7sBRK-16" style="edgeStyle=orthogonalEdgeStyle;rounded=0;orthogonalLoop=1;jettySize=auto;html=1;exitX=0.5;exitY=0;exitDx=0;exitDy=0;entryX=1;entryY=1;entryDx=0;entryDy=0;" parent="WIyWlLk6GJQsqaUBKTNV-1" source="KVD2aukKkULZzSk7sBRK-13" target="zkfFHV4jXpPFQw0GAbJ--17" edge="1">
          <mxGeometry relative="1" as="geometry" />
        </mxCell>
        <mxCell id="KVD2aukKkULZzSk7sBRK-13" value="&lt;h3&gt;Prod. Electricos&lt;/h3&gt;" style="rounded=0;whiteSpace=wrap;html=1;" parent="WIyWlLk6GJQsqaUBKTNV-1" vertex="1">
          <mxGeometry x="1020" y="340" width="180" height="50" as="geometry" />
        </mxCell>
        <mxCell id="KVD2aukKkULZzSk7sBRK-17" value="&lt;div&gt;+ TipoMaterial: string&lt;/div&gt;&lt;div&gt;+ Pilas: bool&lt;/div&gt;&lt;div&gt;+ Recargado: bool&lt;br&gt;&lt;/div&gt;" style="rounded=0;whiteSpace=wrap;html=1;align=left;" parent="WIyWlLk6GJQsqaUBKTNV-1" vertex="1">
          <mxGeometry x="1020" y="390" width="180" height="90" as="geometry" />
        </mxCell>
        <mxCell id="0lGyNNXRtVz3WS-daWf8-6" value="&lt;div align=&quot;left&quot;&gt;+ Login(): bool&lt;/div&gt;&lt;div align=&quot;left&quot;&gt;+ EliminarProductoConClave. void&lt;/div&gt;&lt;div align=&quot;left&quot;&gt;+ Menu(): void&lt;/div&gt;&lt;div align=&quot;left&quot;&gt;+Salir(): void&lt;/div&gt;&lt;div align=&quot;left&quot;&gt;+Carga Completa(): bool&lt;/div&gt;&lt;div align=&quot;left&quot;&gt;+ObtenerNuevoID(): int&lt;/div&gt;&lt;div align=&quot;left&quot;&gt;+AddProducto(): void&lt;/div&gt;&lt;div align=&quot;left&quot;&gt;+AÃ±adirExistencias(List&amp;lt;Producto&amp;gt; listaProductos: void)&lt;/div&gt;&lt;div align=&quot;left&quot;&gt;+ BuscarProductos(int id)&lt;/div&gt;&lt;div align=&quot;left&quot;&gt;+EliminarProducto(Producto p): void&lt;/div&gt;&lt;div align=&quot;left&quot;&gt;+MostrarInformacionproducto(): override void&lt;br&gt;&lt;/div&gt;&lt;div&gt;&lt;br&gt;&lt;/div&gt;&lt;div&gt;&lt;br&gt;&lt;/div&gt;" style="rounded=0;whiteSpace=wrap;html=1;" vertex="1" parent="WIyWlLk6GJQsqaUBKTNV-1">
          <mxGeometry x="274" y="350" width="216" height="230" as="geometry" />
        </mxCell>
        <mxCell id="0lGyNNXRtVz3WS-daWf8-12" value="&lt;div align=&quot;left&quot;&gt;+MostrarInformacion(): override string&lt;/div&gt;&lt;div align=&quot;left&quot;&gt;+SolicitarDetalles(): override void&lt;/div&gt;&lt;div align=&quot;left&quot;&gt;+ToFile(): override void&lt;br&gt;&lt;/div&gt;" style="rounded=0;whiteSpace=wrap;html=1;" vertex="1" parent="WIyWlLk6GJQsqaUBKTNV-1">
          <mxGeometry x="600" y="450" width="150" height="80" as="geometry" />
        </mxCell>
        <mxCell id="0lGyNNXRtVz3WS-daWf8-13" value="&#xa;&lt;div align=&quot;left&quot;&gt;+MostrarInformacion(): override string&lt;/div&gt;&lt;div align=&quot;left&quot;&gt;+SolicitarDetalles(): override void&lt;/div&gt;&lt;div align=&quot;left&quot;&gt;+ToFile(): override void&lt;/div&gt;&#xa;&#xa;" style="rounded=0;whiteSpace=wrap;html=1;" vertex="1" parent="WIyWlLk6GJQsqaUBKTNV-1">
          <mxGeometry x="780" y="490" width="190" height="80" as="geometry" />
        </mxCell>
        <mxCell id="0lGyNNXRtVz3WS-daWf8-14" value="&#xa;&lt;br&gt;&lt;div align=&quot;left&quot;&gt;+MostrarInformacion(): override string&lt;/div&gt;&lt;div align=&quot;left&quot;&gt;+SolicitarDetalles(): override void&lt;/div&gt;&lt;div align=&quot;left&quot;&gt;+ToFile(): override void&lt;/div&gt;&#xa;&#xa;" style="rounded=0;whiteSpace=wrap;html=1;" vertex="1" parent="WIyWlLk6GJQsqaUBKTNV-1">
          <mxGeometry x="1020" y="480" width="180" height="90" as="geometry" />
        </mxCell>
      </root>
    </mxGraphModel>
  </diagram>
</mxfile>
